<?xml version="1.0" standalone="no"?>
<!DOCTYPE svg PUBLIC "-//W3C//DTD SVG 20010904//EN"
 "http://www.w3.org/TR/2001/REC-SVG-20010904/DTD/svg10.dtd">
<svg version="1.0" xmlns="http://www.w3.org/2000/svg"
 width="900.000000pt" height="900.000000pt" viewBox="0 0 900.000000 900.000000"
 preserveAspectRatio="xMidYMid meet">
<metadata>
Created by potrace 1.10, written by Peter Selinger 2001-2011
</metadata>
<g transform="translate(0.000000,900.000000) scale(0.100000,-0.100000)"
fill="#000000" stroke="none">
<path d="M4320 8986 c0 -11 -28 -15 -127 -21 -184 -9 -449 -44 -623 -81 -67
-15 -163 -39 -316 -80 -63 -16 -269 -85 -344 -114 -30 -12 -64 -24 -75 -28
-11 -3 -31 -11 -45 -19 -14 -7 -28 -13 -33 -13 -9 0 -104 -44 -267 -125 -140
-69 -166 -84 -298 -164 -51 -31 -100 -61 -110 -66 -9 -6 -44 -28 -77 -51 -570
-384 -1031 -874 -1378 -1461 -107 -181 -277 -537 -331 -693 -8 -25 -27 -76
-41 -114 -46 -127 -128 -429 -159 -591 -59 -307 -76 -500 -76 -868 0 -362 18
-566 76 -872 8 -44 22 -103 30 -131 8 -28 14 -59 14 -70 0 -10 6 -36 14 -59 8
-22 24 -76 36 -120 24 -88 68 -220 100 -305 12 -30 25 -66 30 -80 4 -14 22
-59 40 -100 182 -425 368 -731 686 -1130 115 -145 439 -469 584 -584 399 -318
705 -504 1130 -686 41 -18 86 -36 100 -40 14 -5 50 -18 80 -30 181 -70 482
-155 685 -194 300 -57 511 -76 864 -76 456 0 750 35 1126 134 341 90 537 163
853 317 611 299 1119 709 1553 1254 75 94 216 292 254 357 5 10 35 59 66 110
80 132 95 158 164 298 81 163 125 258 125 267 0 5 6 19 13 33 8 14 16 34 19
45 4 11 16 45 28 75 33 85 97 278 121 366 41 154 50 190 60 234 49 232 84 483
94 683 6 99 10 127 21 127 11 0 14 32 14 175 0 143 -3 175 -14 175 -11 0 -15
28 -21 128 -9 183 -56 532 -85 644 -6 24 -18 69 -26 101 -34 138 -49 190 -92
327 -25 80 -51 159 -58 175 -7 17 -29 71 -48 121 -75 197 -188 424 -314 633
-83 137 -110 178 -194 297 -220 312 -523 636 -808 864 -196 157 -181 146 -351
261 -256 173 -563 335 -823 435 -50 19 -104 41 -121 48 -16 7 -95 33 -175 58
-136 43 -175 54 -325 91 -33 9 -79 21 -103 27 -112 29 -461 76 -644 85 -100 6
-128 10 -128 21 0 11 -32 14 -175 14 -143 0 -175 -3 -175 -14z m530 -226 c222
-19 386 -46 640 -106 184 -44 243 -60 269 -73 11 -6 29 -11 40 -11 11 0 35 -6
53 -14 18 -8 51 -21 73 -29 215 -79 223 -82 455 -195 156 -76 236 -120 374
-205 546 -337 1036 -827 1373 -1373 85 -138 129 -218 205 -374 113 -232 116
-240 195 -455 8 -22 21 -55 29 -73 8 -18 14 -42 14 -53 0 -11 5 -29 11 -40 13
-26 29 -85 73 -269 97 -410 122 -656 112 -1085 -10 -419 -26 -545 -126 -970
-12 -49 -26 -103 -31 -120 -30 -96 -82 -251 -110 -325 -50 -137 -56 -152 -83
-207 -14 -29 -26 -55 -26 -58 0 -20 -182 -362 -245 -460 -18 -27 -58 -90 -89
-139 -206 -319 -518 -661 -881 -965 -260 -217 -703 -481 -1025 -611 -30 -12
-64 -26 -75 -31 -44 -20 -258 -94 -365 -125 -30 -9 -66 -21 -80 -25 -40 -13
-271 -64 -425 -93 -227 -43 -341 -51 -710 -51 -369 1 -420 4 -705 51 -92 15
-127 22 -290 59 -142 32 -312 83 -480 146 -47 17 -103 38 -124 46 -22 8 -64
25 -93 39 -29 13 -79 36 -110 50 -148 68 -184 87 -368 196 -130 77 -124 73
-234 147 -458 307 -923 787 -1208 1247 -134 216 -300 536 -356 690 -8 21 -29
77 -46 124 -18 47 -41 112 -51 145 -11 33 -25 74 -30 92 -36 108 -91 344 -124
533 -44 246 -50 338 -51 705 0 452 10 541 115 1015 11 52 24 106 29 120 4 14
16 50 25 80 31 107 105 321 125 365 5 11 19 45 31 75 130 322 394 765 611
1025 305 364 645 675 965 881 49 31 112 71 139 89 48 31 85 52 205 118 71 39
248 127 255 127 3 0 29 12 58 26 55 27 70 33 207 83 372 138 750 226 1080 252
69 5 130 11 135 14 22 8 529 5 645 -5z"/>
<path d="M4212 6782 c-25 -9 -90 -59 -160 -120 -64 -58 -166 -147 -227 -198
-60 -51 -123 -105 -140 -120 -51 -45 -74 -57 -88 -47 -6 6 -48 30 -92 53 -44
24 -92 51 -106 59 -133 81 -157 91 -205 91 -55 0 -78 -14 -369 -225 -82 -60
-184 -133 -225 -161 -197 -139 -279 -197 -421 -299 -46 -33 -102 -71 -123 -84
l-40 -24 -40 23 c-23 13 -66 42 -96 65 -98 76 -131 70 -355 -65 -91 -55 -168
-100 -171 -100 -2 0 -23 -12 -45 -26 -118 -74 -457 -252 -752 -394 -176 -85
-61 -98 137 -15 61 26 123 53 138 61 14 8 31 14 37 14 6 0 39 13 73 29 35 15
146 63 248 106 102 42 199 83 215 90 112 50 226 85 272 85 29 0 31 -39 4 -78
-65 -94 -121 -184 -121 -197 0 -26 24 -17 120 48 107 71 549 368 925 622 495
334 545 366 565 360 25 -8 48 -46 67 -107 38 -129 -48 -245 -427 -578 -41 -36
-94 -83 -119 -106 -26 -22 -59 -52 -75 -65 -58 -47 -151 -133 -164 -151 -17
-24 2 -24 40 0 15 9 57 36 95 60 97 60 93 58 247 161 233 156 290 197 560 400
142 108 273 207 291 221 52 40 224 175 296 232 37 29 105 83 152 121 50 39 95
67 109 67 33 0 149 -124 184 -197 21 -44 29 -77 32 -135 8 -162 -51 -264 -433
-748 -70 -89 -87 -120 -66 -120 5 0 35 12 67 26 33 15 93 39 134 54 41 15 120
44 175 64 55 20 138 51 185 67 47 17 101 37 120 44 19 8 82 28 140 46 58 17
120 38 138 45 18 8 42 14 53 14 11 0 30 5 41 11 20 11 104 24 208 34 114 11
368 -67 378 -115 1 -10 -49 -57 -133 -123 -91 -73 -135 -115 -135 -128 0 -42
31 -33 150 41 32 20 266 156 280 163 8 4 24 13 35 20 11 7 97 57 190 111 94
54 181 106 195 115 36 22 99 59 138 78 30 16 33 16 49 0 28 -28 24 -224 -6
-296 -32 -79 -96 -172 -206 -299 -53 -62 -94 -116 -90 -120 8 -9 1627 -15
1673 -7 17 3 32 10 32 15 0 5 -31 28 -69 50 -65 38 -90 64 -73 73 4 3 43 0 86
-4 107 -12 195 -41 401 -129 153 -66 184 -77 275 -100 81 -21 126 -25 134 -11
9 14 -22 35 -144 98 -240 125 -377 198 -450 238 -66 37 -130 72 -210 116 -100
54 -170 49 -259 -19 -30 -22 -46 -27 -96 -27 -49 1 -68 6 -105 30 -25 17 -49
32 -55 35 -5 3 -57 37 -115 75 -58 39 -109 72 -115 75 -5 3 -50 32 -100 64
-49 33 -135 88 -190 124 -55 36 -138 90 -184 121 -80 53 -89 56 -145 56 -54 0
-68 -5 -126 -42 -36 -23 -103 -65 -150 -94 -47 -28 -116 -73 -154 -98 -64 -42
-75 -46 -131 -46 -61 0 -62 1 -201 94 -76 52 -161 111 -189 130 -27 19 -144
99 -260 176 -282 190 -505 342 -587 398 -38 26 -97 67 -132 91 -55 38 -141 78
-164 75 -4 0 -26 -8 -50 -17z"/>
<path d="M4005 4441 c-167 -48 -281 -161 -335 -332 -61 -197 24 -423 207 -545
28 -19 58 -34 65 -34 8 0 24 -11 36 -23 19 -20 22 -34 21 -94 -1 -39 2 -76 5
-82 5 -7 52 -11 132 -11 l124 0 11 27 c5 15 9 52 7 83 -1 30 1 61 5 68 5 7 38
26 75 43 134 63 235 204 262 364 25 148 -38 327 -149 428 -123 111 -308 154
-466 108z m223 -268 c40 -25 82 -65 82 -79 0 -6 7 -17 15 -24 23 -19 20 -150
-4 -199 -27 -53 -79 -95 -135 -111 -88 -24 -188 27 -231 117 -52 109 -16 223
95 296 34 23 141 23 178 0z"/>
<path d="M6640 4442 c-98 -36 -142 -80 -172 -170 -21 -65 -22 -101 -6 -174 10
-43 22 -63 68 -110 57 -57 79 -69 205 -115 103 -38 136 -74 100 -109 -39 -40
-141 -22 -217 37 -20 16 -44 29 -52 29 -18 0 -166 -140 -166 -156 0 -26 90
-98 170 -136 l85 -41 120 0 c100 0 127 4 165 21 83 38 126 77 159 143 75 149
18 311 -137 388 -79 40 -95 47 -159 70 -65 24 -79 40 -63 72 17 30 74 24 154
-16 57 -30 71 -33 84 -23 36 30 102 105 119 135 16 30 16 33 1 50 -31 33 -124
83 -194 103 -85 25 -201 25 -264 2z"/>
<path d="M1160 4421 c-7 -15 -10 -153 -8 -461 3 -379 5 -442 18 -450 8 -5 61
-10 118 -10 142 0 142 0 142 165 0 69 3 125 8 125 140 0 222 10 274 33 67 30
123 84 152 147 29 63 30 238 2 290 -38 71 -77 109 -144 142 l-66 33 -242 3
c-237 3 -243 3 -254 -17z m428 -247 c30 -21 30 -79 0 -111 -18 -20 -31 -23
-90 -23 l-68 0 0 75 0 75 68 0 c45 0 75 -5 90 -16z"/>
<path d="M2002 4428 c-17 -17 -17 -899 0 -916 9 -9 96 -12 329 -12 275 0 320
2 333 16 20 20 23 203 4 222 -8 8 -67 12 -198 12 -131 0 -190 4 -198 12 -16
16 -15 73 1 86 8 7 71 13 153 14 l139 3 3 104 c2 65 -1 108 -8 115 -6 6 -71
13 -153 16 l-142 5 0 40 0 40 189 3 c119 1 194 7 203 13 17 15 18 210 1 227
-17 17 -639 17 -656 0z"/>
<path d="M3068 4423 c-8 -10 -18 -27 -21 -38 -6 -21 -51 -143 -85 -230 -11
-27 -46 -117 -77 -200 -32 -82 -66 -172 -77 -200 -84 -219 -86 -224 -63 -241
13 -10 49 -14 122 -14 97 0 106 2 128 25 14 13 25 35 25 49 0 50 19 56 168 56
75 0 142 -4 147 -8 6 -4 17 -26 23 -49 19 -64 39 -73 158 -73 56 0 109 3 118
6 20 8 20 33 2 76 -15 35 -24 59 -76 198 -17 47 -38 102 -46 123 -8 20 -20 54
-28 75 -8 20 -29 75 -46 122 -58 155 -89 237 -107 280 -24 55 -36 60 -148 60
-85 0 -104 -3 -117 -17z m143 -396 c36 -96 48 -138 43 -152 -7 -18 -104 -21
-120 -5 -13 13 35 200 51 200 6 0 17 -19 26 -43z"/>
<path d="M4722 4428 c-18 -18 -16 -595 2 -666 29 -108 99 -190 204 -239 52
-25 68 -27 187 -27 144 -1 182 9 260 69 138 105 155 167 155 578 0 263 -1 277
-19 287 -28 15 -223 13 -244 -2 -14 -12 -17 -47 -19 -303 -3 -322 -4 -324 -71
-365 -56 -34 -112 -22 -159 35 -30 36 -38 111 -38 374 0 227 -2 260 -16 265
-30 11 -229 7 -242 -6z"/>
<path d="M5662 4428 c-17 -17 -17 -899 0 -916 9 -9 96 -12 328 -12 379 0 350
-11 350 131 0 61 -4 99 -12 107 -8 8 -67 12 -198 12 -131 0 -190 4 -198 12
-16 16 -15 73 1 86 8 7 71 13 153 14 l139 3 3 104 c2 65 -1 108 -8 115 -6 6
-71 13 -153 16 l-142 5 0 40 0 40 190 3 c164 2 192 5 203 19 16 22 17 204 0
221 -17 17 -639 17 -656 0z"/>
<path d="M7167 4433 c-4 -3 -7 -60 -7 -125 l0 -118 103 0 c67 0 107 -4 115
-12 9 -9 12 -96 12 -329 0 -275 2 -320 16 -333 12 -12 38 -16 115 -16 55 0
109 5 120 10 18 10 19 25 19 333 0 238 3 326 12 335 8 8 48 12 115 12 l103 0
11 28 c16 39 7 201 -12 213 -16 10 -712 13 -722 2z"/>
<path d="M2263 3000 c-75 -30 -54 -130 27 -130 45 0 70 24 70 68 0 26 -7 36
-32 52 -37 22 -35 22 -65 10z m42 -65 c0 -11 -8 -21 -17 -23 -14 -3 -18 3 -18
23 0 20 4 26 18 23 9 -2 17 -12 17 -23z"/>
<path d="M2806 2989 c-31 -24 -33 -48 -7 -80 13 -17 17 -33 14 -56 -7 -43 17
-45 58 -4 23 24 29 38 29 73 0 49 -6 60 -37 77 -28 14 -26 15 -57 -10z"/>
<path d="M3420 2996 c-46 -16 -100 -87 -100 -129 0 -44 31 -91 80 -122 22 -14
40 -29 40 -33 0 -4 -13 -27 -30 -51 -35 -54 -27 -71 35 -71 51 0 56 6 138 159
60 114 45 196 -47 240 -48 24 -66 25 -116 7z m90 -116 c22 -40 -35 -81 -68
-48 -7 7 -12 19 -12 28 0 40 61 55 80 20z"/>
<path d="M3703 2999 c-26 -9 -47 -44 -37 -62 4 -6 15 -21 26 -33 15 -17 17
-26 9 -47 -13 -34 0 -42 38 -23 20 11 34 29 44 60 14 40 14 46 -3 74 -20 33
-45 43 -77 31z"/>
<path d="M3858 2994 c-32 -17 -39 -63 -13 -84 9 -7 15 -29 15 -51 0 -43 0 -43
33 -28 58 26 77 122 31 158 -31 25 -31 25 -66 5z"/>
<path d="M4840 2998 c-41 -11 -63 -30 -91 -75 -20 -32 -20 -35 -4 -52 28 -32
53 -32 89 0 41 36 70 37 92 4 24 -37 7 -62 -128 -179 -67 -58 -83 -88 -52
-100 27 -10 264 -7 285 4 22 12 26 59 7 78 -7 7 -26 12 -43 12 -18 0 -34 3
-38 6 -3 4 12 28 35 55 36 43 41 55 42 102 0 65 -28 111 -88 138 -46 21 -56
21 -106 7z"/>
<path d="M5140 3003 c-31 -12 -50 -37 -50 -68 0 -41 27 -65 72 -65 54 0 87 60
55 101 -11 14 -51 40 -59 38 -2 0 -10 -3 -18 -6z m40 -68 c0 -29 -34 -36 -44
-9 -8 21 1 34 25 34 14 0 19 -7 19 -25z"/>
<path d="M5763 2999 c-42 -12 -103 -73 -103 -102 0 -51 57 -64 96 -22 40 43
94 28 94 -26 0 -28 -56 -92 -144 -164 -50 -40 -66 -72 -45 -86 8 -5 73 -9 146
-9 139 0 163 7 163 50 0 38 -11 50 -49 50 -21 0 -41 3 -44 6 -4 4 9 25 29 46
19 21 39 50 44 64 30 78 -14 164 -99 193 -39 13 -44 13 -88 0z"/>
<path d="M6043 2997 c-11 -5 -25 -19 -31 -31 -8 -19 -6 -29 13 -52 17 -22 22
-37 18 -61 -6 -38 9 -43 43 -15 78 62 41 197 -43 159z"/>
<path d="M6290 2998 c-40 -11 -76 -41 -97 -81 -18 -36 -12 -52 25 -65 27 -9
33 -7 58 19 31 32 64 37 88 13 29 -29 18 -55 -51 -123 -38 -36 -85 -81 -106
-98 -24 -20 -37 -39 -35 -50 3 -16 19 -18 146 -21 154 -3 182 4 182 43 0 44
-10 55 -49 55 -21 0 -41 3 -44 7 -4 3 8 25 27 47 53 65 63 103 41 160 -19 49
-48 75 -104 94 -38 14 -34 14 -81 0z"/>
<path d="M6645 2998 c-57 -21 -104 -70 -105 -110 0 -10 14 -25 31 -34 31 -15
32 -15 63 15 35 34 66 39 90 15 36 -35 16 -68 -102 -170 -89 -78 -98 -90 -82
-110 10 -11 41 -14 144 -14 152 0 169 6 164 60 -3 32 -6 35 -38 38 -54 5 -57
17 -17 61 42 47 52 76 44 133 -7 50 -53 101 -106 117 -45 13 -46 13 -86 -1z"/>
<path d="M6916 2989 c-31 -25 -33 -51 -6 -77 14 -13 20 -29 18 -52 -4 -43 12
-47 51 -15 28 24 31 33 31 81 0 49 -2 55 -30 69 -36 19 -32 19 -64 -6z"/>
<path d="M7092 2998 c-33 -16 -39 -54 -14 -87 13 -17 18 -37 15 -53 -11 -57
51 -38 81 25 22 49 20 64 -13 98 -32 32 -36 33 -69 17z"/>
<path d="M1617 2986 c-8 -8 -19 -29 -26 -48 -27 -72 -45 -115 -68 -166 -14
-30 -25 -66 -26 -80 l-2 -27 100 -5 100 -5 5 -30 c4 -25 10 -30 38 -33 38 -4
62 12 62 39 0 12 10 23 25 29 20 8 25 16 25 45 0 26 -6 39 -25 51 -17 11 -25
25 -25 44 0 36 -21 52 -62 48 -30 -3 -33 -6 -38 -43 -4 -28 -10 -41 -24 -43
-32 -7 -41 14 -24 55 64 155 66 161 55 172 -16 16 -73 14 -90 -3z"/>
<path d="M1924 2989 c-4 -7 -13 -53 -21 -103 -12 -85 -12 -91 6 -109 15 -16
22 -17 40 -7 12 6 41 10 64 8 42 -3 42 -3 42 -43 0 -37 -2 -40 -29 -43 -16 -2
-40 2 -53 9 -19 10 -29 10 -58 -4 -41 -19 -44 -35 -12 -65 30 -28 70 -42 123
-42 110 0 178 95 140 195 -21 55 -66 85 -126 85 -68 0 -44 24 31 30 l64 5 0
45 0 45 -102 3 c-70 2 -104 -1 -109 -9z"/>
<path d="M2523 2988 c-10 -15 -26 -51 -78 -188 -20 -52 -41 -100 -47 -107 -20
-25 4 -33 98 -33 l95 0 11 -30 c17 -51 108 -55 108 -5 0 14 8 29 20 35 14 8
20 21 20 45 0 22 -8 43 -20 55 -11 11 -20 31 -20 45 0 53 -94 59 -106 7 -10
-48 -13 -52 -34 -52 -27 0 -26 9 16 117 20 51 34 100 30 108 -7 19 -79 21 -93
3z"/>
<path d="M3063 2988 c-13 -17 -124 -288 -126 -308 -2 -12 17 -16 98 -20 96 -5
99 -6 105 -30 12 -50 110 -50 110 -1 0 11 9 25 20 31 15 8 20 21 20 48 0 26
-6 41 -20 50 -13 8 -20 23 -20 42 0 38 -34 57 -77 43 -22 -7 -29 -17 -33 -44
-4 -26 -10 -35 -27 -37 -18 -3 -23 1 -23 20 0 13 4 28 9 34 16 17 63 162 56
173 -9 15 -80 14 -92 -1z"/>
<path d="M4017 2993 c-4 -3 -7 -90 -7 -193 0 -199 3 -210 50 -210 40 0 50 18
50 92 0 100 13 100 120 -7 62 -62 93 -86 104 -82 15 6 16 30 14 204 l-3 198
-45 0 -45 0 -3 -80 c-2 -44 -7 -84 -11 -88 -5 -5 -51 32 -102 82 -88 87 -107
100 -122 84z"/>
<path d="M5364 2924 c-19 -41 -34 -79 -34 -84 0 -4 -6 -21 -14 -37 -36 -70
-57 -126 -49 -134 4 -4 53 -10 108 -11 l100 -3 5 -30 c5 -27 9 -30 44 -30 36
0 41 3 48 30 4 17 17 35 30 40 16 7 22 18 21 38 -2 44 -2 45 -22 52 -12 3 -21
20 -27 48 -9 41 -10 42 -49 42 -38 0 -40 -1 -48 -42 -7 -37 -12 -43 -33 -43
-28 0 -31 22 -10 72 67 156 68 168 6 168 l-41 0 -35 -76z"/>
<path d="M7241 2981 c-7 -12 -11 -90 -11 -190 0 -141 3 -172 16 -185 12 -12
38 -16 114 -16 54 0 105 3 114 6 11 4 16 19 16 49 0 50 -8 55 -87 55 -51 0
-54 2 -51 23 3 19 10 22 55 25 47 3 54 6 59 29 11 41 -7 57 -67 63 -50 5 -54
7 -54 30 0 24 3 25 70 30 l70 5 0 45 0 45 -117 3 c-108 2 -118 1 -127 -17z"/>
</g>
</svg>
